<svg width="226" height="226" viewBox="0 0 226 226" fill="none" xmlns="http://www.w3.org/2000/svg">
<path d="M219.44 129.49C220.31 123.86 225.12 118.44 225.12 112.56C225.12 106.68 220.31 101.26 219.44 95.63C218.52 89.85 221.41 83.2 219.64 77.76C217.85 72.22 211.6 68.55 208.99 63.43C206.36 58.26 207.03 51.05 203.64 46.38C200.24 41.7 193.16 40.13 189.07 36.05C184.99 31.96 183.42 24.88 178.74 21.48C174.07 18.08 166.86 18.76 161.69 16.13C156.58 13.52 152.9 7.27 147.36 5.48C141.92 3.71 135.27 6.59 129.49 5.68C123.86 4.81 118.44 0 112.56 0C106.68 0 101.26 4.81 95.63 5.68C89.85 6.6 83.2 3.71 77.76 5.48C72.22 7.27 68.55 13.52 63.43 16.13C58.26 18.76 51.05 18.09 46.38 21.48C41.7 24.88 40.13 31.96 36.05 36.05C31.96 40.13 24.88 41.7 21.48 46.38C18.08 51.05 18.76 58.26 16.13 63.43C13.52 68.54 7.27 72.22 5.48 77.76C3.71 83.2 6.59 89.85 5.68 95.63C4.81 101.26 0 106.68 0 112.56C0 118.44 4.81 123.86 5.68 129.49C6.6 135.27 3.71 141.92 5.48 147.36C7.27 152.9 13.52 156.57 16.13 161.69C18.76 166.86 18.09 174.07 21.48 178.74C24.88 183.42 31.96 184.99 36.05 189.07C40.13 193.16 41.7 200.24 46.38 203.64C51.05 207.04 58.26 206.36 63.43 208.99C68.54 211.6 72.22 217.85 77.76 219.64C83.2 221.41 89.85 218.53 95.63 219.44C101.26 220.31 106.68 225.12 112.56 225.12C118.44 225.12 123.86 220.31 129.49 219.44C135.27 218.52 141.92 221.41 147.36 219.64C152.9 217.85 156.57 211.6 161.69 208.99C166.86 206.36 174.07 207.03 178.74 203.64C183.42 200.24 184.99 193.16 189.07 189.07C193.16 184.99 200.24 183.42 203.64 178.74C207.04 174.07 206.36 166.86 208.99 161.69C211.6 156.58 217.85 152.9 219.64 147.36C221.41 141.92 218.53 135.27 219.44 129.49ZM167.41 36.15L190.54 56.18L104.07 156.03L65.41 117.37L87.05 95.74L102.47 111.15L167.42 36.15H167.41ZM112.56 200.8C63.82 200.8 24.32 161.29 24.32 112.56C24.32 63.83 63.82 24.32 112.56 24.32C127.61 24.32 141.78 28.09 154.17 34.73L145.34 44.94C135.43 40.13 124.31 37.43 112.56 37.43C71.07 37.43 37.43 71.07 37.43 112.56C37.43 154.05 71.07 187.69 112.56 187.69C154.05 187.69 187.69 154.05 187.69 112.56C187.69 102.1 185.55 92.15 181.69 83.1L191.08 72.25C197.3 84.33 200.81 98.04 200.81 112.56C200.81 161.3 161.3 200.8 112.57 200.8H112.56Z" fill="#024985"/>
</svg>
