<svg width="49" height="48" viewBox="0 0 49 48" fill="none" xmlns="http://www.w3.org/2000/svg">
<path d="M42.8047 20H6.80469M32.8047 4V12M16.8047 4V12M16.4047 44H33.2047C36.565 44 38.2452 44 39.5286 43.346C40.6576 42.7708 41.5755 41.8529 42.1507 40.7239C42.8047 39.4405 42.8047 37.7603 42.8047 34.4V17.6C42.8047 14.2397 42.8047 12.5595 42.1507 11.2761C41.5755 10.1471 40.6576 9.2292 39.5286 8.65396C38.2452 8 36.565 8 33.2047 8H16.4047C13.0444 8 11.3642 8 10.0807 8.65396C8.95177 9.2292 8.03389 10.1471 7.45865 11.2761C6.80469 12.5595 6.80469 14.2397 6.80469 17.6V34.4C6.80469 37.7603 6.80469 39.4405 7.45865 40.7239C8.03389 41.8529 8.95177 42.7708 10.0807 43.346C11.3642 44 13.0444 44 16.4047 44Z" stroke="#024985" stroke-width="3" stroke-linecap="round" stroke-linejoin="round"/>
</svg>
