<svg width="228" height="180" viewBox="0 0 228 180" fill="none" xmlns="http://www.w3.org/2000/svg">
<path d="M223.585 179.979H4.41504C2.32504 179.979 0.625 178.279 0.625 176.189V19.8994C0.625 17.8094 2.32504 16.1094 4.41504 16.1094H21.855C23.945 16.1094 25.645 17.8094 25.645 19.8994C25.645 21.9894 23.945 23.6895 21.855 23.6895H8.21533V172.389H219.795V23.6895H206.215C204.125 23.6895 202.425 21.9894 202.425 19.8994C202.425 17.8094 204.125 16.1094 206.215 16.1094H223.585C225.675 16.1094 227.375 17.8094 227.375 19.8994V176.189C227.375 178.279 225.675 179.979 223.585 179.979Z" fill="#024985"/>
<path d="M125.965 23.6895H112.935C110.845 23.6895 109.145 21.9894 109.145 19.8994C109.145 17.8094 110.845 16.1094 112.935 16.1094H125.965C128.055 16.1094 129.754 17.8094 129.754 19.8994C129.754 21.9894 128.055 23.6895 125.965 23.6895Z" fill="#024985"/>
<path d="M80.8047 23.6895H67.7744C65.6844 23.6895 63.9844 21.9894 63.9844 19.8994C63.9844 17.8094 65.6844 16.1094 67.7744 16.1094H80.8047C82.8947 16.1094 84.5947 17.8094 84.5947 19.8994C84.5947 21.9894 82.8947 23.6895 80.8047 23.6895Z" fill="#024985"/>
<path d="M174.416 23.6895H161.386C159.296 23.6895 157.596 21.9894 157.596 19.8994C157.596 17.8094 159.296 16.1094 161.386 16.1094H174.416C176.506 16.1094 178.206 17.8094 178.206 19.8994C178.206 21.9894 176.506 23.6895 174.416 23.6895Z" fill="#024985"/>
<path d="M43.7944 39.7896C36.3044 39.7896 30.2148 33.6996 30.2148 26.2096V13.5995C30.2148 6.10949 36.3044 0.0195312 43.7944 0.0195312C51.2844 0.0195312 57.3745 6.10949 57.3745 13.5995V26.2096C57.3745 33.6996 51.2844 39.7896 43.7944 39.7896ZM43.7944 7.59949C40.4844 7.59949 37.7944 10.2895 37.7944 13.5995V26.2096C37.7944 29.5196 40.4844 32.2096 43.7944 32.2096C47.1044 32.2096 49.7944 29.5196 49.7944 26.2096V13.5995C49.7944 10.2895 47.1044 7.59949 43.7944 7.59949Z" fill="#024985"/>
<path d="M90.5957 39.7896C83.1057 39.7896 77.0156 33.6996 77.0156 26.2096V13.5995C77.0156 6.10949 83.1057 0.0195312 90.5957 0.0195312C98.0857 0.0195312 104.176 6.10949 104.176 13.5995V26.2096C104.176 33.6996 98.0857 39.7896 90.5957 39.7896ZM90.5957 7.59949C87.2857 7.59949 84.5957 10.2895 84.5957 13.5995V26.2096C84.5957 29.5196 87.2857 32.2096 90.5957 32.2096C93.9057 32.2096 96.5957 29.5196 96.5957 26.2096V13.5995C96.5957 10.2895 93.9057 7.59949 90.5957 7.59949Z" fill="#024985"/>
<path d="M137.395 39.7896C129.905 39.7896 123.814 33.6996 123.814 26.2096V13.5995C123.814 6.10949 129.905 0.0195312 137.395 0.0195312C144.885 0.0195312 150.975 6.10949 150.975 13.5995V26.2096C150.975 33.6996 144.885 39.7896 137.395 39.7896ZM137.395 7.59949C134.085 7.59949 131.395 10.2895 131.395 13.5995V26.2096C131.395 29.5196 134.085 32.2096 137.395 32.2096C140.705 32.2096 143.395 29.5196 143.395 26.2096V13.5995C143.395 10.2895 140.705 7.59949 137.395 7.59949Z" fill="#024985"/>
<path d="M184.205 39.7896C176.715 39.7896 170.625 33.6996 170.625 26.2096V13.5995C170.625 6.10949 176.715 0.0195312 184.205 0.0195312C191.695 0.0195312 197.785 6.10949 197.785 13.5995V26.2096C197.785 33.6996 191.695 39.7896 184.205 39.7896ZM184.205 7.59949C180.895 7.59949 178.205 10.2895 178.205 13.5995V26.2096C178.205 29.5196 180.895 32.2096 184.205 32.2096C187.515 32.2096 190.205 29.5196 190.205 26.2096V13.5995C190.205 10.2895 187.515 7.59949 184.205 7.59949Z" fill="#024985"/>
<path d="M55.1646 105.929H32.4248C30.3348 105.929 28.6348 104.229 28.6348 102.139V79.3994C28.6348 77.3094 30.3348 75.6094 32.4248 75.6094H55.1646C57.2546 75.6094 58.9546 77.3094 58.9546 79.3994V102.139C58.9546 104.229 57.2546 105.929 55.1646 105.929ZM36.2148 98.3395H51.3745V83.1794H36.2148V98.3395Z" fill="#024985"/>
<path d="M101.966 105.929H79.2256C77.1356 105.929 75.4355 104.229 75.4355 102.139V79.3994C75.4355 77.3094 77.1356 75.6094 79.2256 75.6094H101.966C104.056 75.6094 105.755 77.3094 105.755 79.3994V102.139C105.755 104.229 104.056 105.929 101.966 105.929ZM83.0156 98.3395H98.1758V83.1794H83.0156V98.3395Z" fill="#024985"/>
<path d="M148.694 105.929H125.954C123.864 105.929 122.164 104.229 122.164 102.139V79.3994C122.164 77.3094 123.864 75.6094 125.954 75.6094H148.694C150.784 75.6094 152.484 77.3094 152.484 79.3994V102.139C152.484 104.229 150.784 105.929 148.694 105.929ZM129.754 98.3395H144.914V83.1794H129.754V98.3395Z" fill="#024985"/>
<path d="M195.504 105.929H172.765C170.675 105.929 168.975 104.229 168.975 102.139V79.3994C168.975 77.3094 170.675 75.6094 172.765 75.6094H195.504C197.594 75.6094 199.294 77.3094 199.294 79.3994V102.139C199.294 104.229 197.594 105.929 195.504 105.929ZM176.555 98.3395H191.715V83.1794H176.555V98.3395Z" fill="#024985"/>
<path d="M55.1646 150.79H32.4248C30.3348 150.79 28.6348 149.09 28.6348 147V124.26C28.6348 122.17 30.3348 120.47 32.4248 120.47H55.1646C57.2546 120.47 58.9546 122.17 58.9546 124.26V147C58.9546 149.09 57.2546 150.79 55.1646 150.79ZM36.2148 143.21H51.3745V128.05H36.2148V143.21Z" fill="#024985"/>
<path d="M101.966 150.79H79.2256C77.1356 150.79 75.4355 149.09 75.4355 147V124.26C75.4355 122.17 77.1356 120.47 79.2256 120.47H101.966C104.056 120.47 105.755 122.17 105.755 124.26V147C105.755 149.09 104.056 150.79 101.966 150.79ZM83.0156 143.21H98.1758V128.05H83.0156V143.21Z" fill="#024985"/>
<path d="M148.694 150.79H125.954C123.864 150.79 122.164 149.09 122.164 147V124.26C122.164 122.17 123.864 120.47 125.954 120.47H148.694C150.784 120.47 152.484 122.17 152.484 124.26V147C152.484 149.09 150.784 150.79 148.694 150.79ZM129.754 143.21H144.914V128.05H129.754V143.21Z" fill="#024985"/>
<path d="M195.504 150.79H172.765C170.675 150.79 168.975 149.09 168.975 147V124.26C168.975 122.17 170.675 120.47 172.765 120.47H195.504C197.594 120.47 199.294 122.17 199.294 124.26V147C199.294 149.09 197.594 150.79 195.504 150.79ZM176.555 143.21H191.715V128.05H176.555V143.21Z" fill="#024985"/>
</svg>
