<svg width="244" height="216" viewBox="0 0 244 216" fill="none" xmlns="http://www.w3.org/2000/svg">
<path d="M31.3062 145.96C30.0062 145.96 28.6861 145.67 27.4561 145.08C24.2961 143.58 22.3362 140.48 22.3362 136.99V123.97H19.696C9.10604 123.97 0.496094 115.36 0.496094 104.77V29.4002C0.496094 18.8102 9.10604 10.2002 19.696 10.2002H142.286C152.876 10.2002 161.486 18.8102 161.486 29.4002V104.77C161.486 115.36 152.876 123.97 142.286 123.97H61.3362L36.9561 143.92C35.3161 145.26 33.3262 145.96 31.3062 145.96ZM19.686 17.7902C13.286 17.7902 8.06616 23.0002 8.06616 29.4102V104.78C8.06616 111.19 13.276 116.4 19.686 116.4H26.1162C28.2062 116.4 29.906 118.1 29.906 120.19V137C29.906 137.75 30.396 138.1 30.686 138.24C30.976 138.38 31.556 138.54 32.136 138.06L57.5662 117.26C58.2462 116.71 59.0961 116.4 59.9661 116.4H142.266C148.676 116.4 153.886 111.19 153.886 104.78V29.4102C153.886 23.0102 148.676 17.7902 142.266 17.7902H19.676H19.686Z" fill="#024985"/>
<path d="M195.547 206.91C193.527 206.91 191.537 206.22 189.897 204.87L165.517 184.92H84.5671C73.9771 184.92 65.3672 176.31 65.3672 165.72V139.03C65.3672 136.94 67.067 135.24 69.157 135.24C71.247 135.24 72.947 136.94 72.947 139.03V165.72C72.947 172.13 78.1571 177.34 84.5671 177.34H166.867C167.747 177.34 168.587 177.64 169.267 178.2L194.697 199.01C195.277 199.49 195.857 199.33 196.147 199.19C196.437 199.05 196.927 198.71 196.927 197.95V181.14C196.927 179.05 198.627 177.35 200.717 177.35H207.147C213.557 177.35 218.767 172.14 218.767 165.73V90.3602C218.767 83.9502 213.557 78.7402 207.147 78.7402H175.747C173.657 78.7402 171.957 77.0401 171.957 74.9501C171.957 72.8601 173.657 71.1602 175.747 71.1602H207.147C217.737 71.1602 226.347 79.7702 226.347 90.3602V165.73C226.347 176.32 217.737 184.93 207.147 184.93H204.507V197.95C204.507 201.44 202.547 204.54 199.387 206.04C198.147 206.63 196.837 206.92 195.527 206.92L195.547 206.91Z" fill="#024985"/>
<path d="M228.846 57.23C226.756 57.23 225.056 55.53 225.056 53.44C225.056 28.15 204.486 7.57996 179.196 7.57996C177.106 7.57996 175.406 5.87998 175.406 3.78998C175.406 1.69998 177.106 0 179.196 0C208.666 0 232.636 23.98 232.636 53.44C232.636 55.53 230.936 57.23 228.846 57.23Z" fill="#024985"/>
<path d="M228.577 59.6697C227.587 59.6697 226.627 59.2796 225.917 58.5796L212.477 45.3697C210.987 43.8997 210.967 41.4997 212.427 40.0097C213.897 38.5197 216.297 38.4996 217.787 39.9596L228.057 50.0497L236.617 38.0097C237.827 36.2997 240.197 35.8997 241.907 37.1197C243.617 38.3297 244.017 40.6996 242.797 42.4096L231.657 58.0697C231.017 58.9697 230.007 59.5496 228.897 59.6496C228.787 59.6496 228.677 59.6596 228.567 59.6596L228.577 59.6697Z" fill="#024985"/>
<path d="M71.2049 215.95C61.2649 215.95 51.495 213.16 42.865 207.74C30.775 200.14 22.3749 188.3 19.1949 174.38C18.7249 172.34 20.005 170.31 22.045 169.84C24.085 169.38 26.115 170.65 26.585 172.69C29.305 184.63 36.5248 194.8 46.8948 201.32C57.2648 207.84 69.5549 209.93 81.4949 207.2C83.5449 206.74 85.565 208.01 86.035 210.05C86.505 212.09 85.2249 214.12 83.1849 214.59C79.2049 215.5 75.1849 215.95 71.1949 215.95H71.2049Z" fill="#024985"/>
<path d="M15.2457 192.63C14.7557 192.63 14.2658 192.54 13.7958 192.34C11.8658 191.54 10.9457 189.32 11.7457 187.38L19.1256 169.63C19.5556 168.6 20.4057 167.82 21.4657 167.48C22.5257 167.14 23.6756 167.28 24.6256 167.86L40.6657 177.75C42.4457 178.85 43.0056 181.19 41.9056 182.97C40.8056 184.75 38.4757 185.31 36.6857 184.21L24.4357 176.65L18.7658 190.29C18.1558 191.75 16.7458 192.63 15.2658 192.63H15.2457Z" fill="#024985"/>
</svg>
