<svg width="220" height="220" viewBox="0 0 220 220" fill="none" xmlns="http://www.w3.org/2000/svg">
<path d="M110.003 195.975C62.5991 195.975 24.0371 157.413 24.0371 110.01C24.0371 103.514 24.7645 97.0396 26.1988 90.7697C35.1836 51.4803 69.6477 24.0342 110.003 24.0342C157.406 24.0342 195.978 62.5961 195.978 110.01C195.978 157.423 157.416 195.975 110.003 195.975ZM110.003 31.7998C73.2846 31.7998 41.935 56.7565 33.7698 92.4909C32.4687 98.1973 31.8027 104.088 31.8027 109.999C31.8027 153.12 66.8815 188.199 110.003 188.199C153.123 188.199 188.202 153.12 188.202 109.999C188.202 66.8785 153.123 31.7998 110.003 31.7998Z" fill="#024985"/>
<path d="M110 220C49.3499 220 0 170.66 0 110C0 101.702 0.93224 93.4134 2.76609 85.3814C14.2609 35.1094 58.3552 0 110 0C170.65 0 220 49.3499 220 110C220 170.65 170.65 220 110 220ZM10.3474 87.1231C8.63647 94.5916 7.77588 102.286 7.77588 110.01C7.77588 166.378 53.6323 212.234 110 212.234C166.368 212.234 212.224 166.378 212.224 110.01C212.224 53.6426 166.368 7.78614 110 7.78614C62.0024 7.78614 21.0226 40.4164 10.3474 87.1333V87.1231Z" fill="#024985"/>
<path d="M109.998 46.1844C107.857 46.1844 106.115 44.4427 106.115 42.3015V27.9278C106.115 25.7866 107.857 24.0449 109.998 24.0449C112.139 24.0449 113.881 25.7866 113.881 27.9278V42.3015C113.881 44.4427 112.139 46.1844 109.998 46.1844Z" fill="#024985"/>
<path d="M109.998 195.975C107.857 195.975 106.115 194.234 106.115 192.092V177.719C106.115 175.577 107.857 173.836 109.998 173.836C112.139 173.836 113.881 175.577 113.881 177.719V192.092C113.881 194.234 112.139 195.975 109.998 195.975Z" fill="#024985"/>
<path d="M192.083 113.893H177.709C175.568 113.893 173.826 112.151 173.826 110.01C173.826 107.869 175.568 106.127 177.709 106.127H192.083C194.224 106.127 195.965 107.869 195.965 110.01C195.965 112.151 194.224 113.893 192.083 113.893Z" fill="#024985"/>
<path d="M42.2896 113.893H27.9161C25.7749 113.893 24.0332 112.151 24.0332 110.01C24.0332 107.869 25.7749 106.127 27.9161 106.127H42.2896C44.4308 106.127 46.1725 107.869 46.1725 110.01C46.1725 112.151 44.4308 113.893 42.2896 113.893Z" fill="#024985"/>
<path d="M109.999 113.892C109.661 113.892 109.313 113.851 108.975 113.759C107.827 113.441 106.885 112.632 106.424 111.536L90.3494 73.8446C89.5094 71.8673 90.4212 69.5928 92.3984 68.7528C94.3757 67.9127 96.6501 68.8245 97.4901 70.8018L111.638 103.975L132.928 88.3105C134.659 87.0401 137.087 87.4088 138.357 89.1402C139.628 90.8716 139.259 93.2997 137.527 94.5701L112.294 113.144C111.618 113.636 110.809 113.902 109.989 113.902L109.999 113.892Z" fill="#024985"/>
</svg>
