<svg width="260" height="210" viewBox="0 0 260 210" fill="none" xmlns="http://www.w3.org/2000/svg">
<path d="M95.7069 209.775C87.0869 209.775 80.0769 202.765 80.0769 194.145V191.525C80.0769 190.315 79.3269 189.265 78.2069 188.895C73.8769 187.485 69.6169 185.715 65.5469 183.625C64.5469 183.115 63.3168 183.325 62.4968 184.135L60.5669 186.065C54.4669 192.155 44.5569 192.155 38.4569 186.065L24.4968 172.105C18.3968 166.015 18.3968 156.095 24.4968 149.995L26.4269 148.065C27.2469 147.245 27.4469 146.025 26.9369 145.015C24.8569 140.935 23.0869 136.675 21.6769 132.355C21.3069 131.235 20.2569 130.485 19.0469 130.485H16.4269C7.80688 130.485 0.796875 123.475 0.796875 114.855V95.1147C0.796875 86.4947 7.80688 79.4847 16.4269 79.4847H19.0469C20.2569 79.4847 21.3069 78.7347 21.6769 77.6147C23.0869 73.2947 24.8569 69.0348 26.9369 64.9548C27.4469 63.9548 27.2469 62.7248 26.4269 61.9048L24.5068 59.9747C21.5568 57.0247 19.9269 53.0948 19.9269 48.9248C19.9269 44.7548 21.5568 40.8248 24.5068 37.8748L38.4669 23.9148C44.5569 17.8148 54.4769 17.8248 60.5769 23.9148L62.4968 25.8348C63.3168 26.6548 64.5469 26.8547 65.5469 26.3547C69.6169 24.2747 73.8769 22.5047 78.2069 21.0947C79.3269 20.7247 80.0769 19.6748 80.0769 18.4648V15.8447C80.0769 7.22473 87.0869 0.214844 95.7069 0.214844H115.457C124.077 0.214844 131.087 7.22473 131.087 15.8447V18.4648C131.087 19.6748 131.837 20.7247 132.957 21.0947C137.277 22.5047 141.537 24.2747 145.617 26.3647C146.617 26.8747 147.847 26.6747 148.667 25.8547L150.597 23.9248C153.547 20.9748 157.477 19.3447 161.647 19.3447C165.817 19.3447 169.747 20.9748 172.697 23.9248L186.657 37.8848C189.607 40.8348 191.237 44.7648 191.237 48.9348C191.237 53.1048 189.607 57.0347 186.657 59.9847C185.177 61.4647 182.777 61.4647 181.297 59.9847C179.817 58.5047 179.817 56.1048 181.297 54.6248C182.777 53.1448 183.657 51.0848 183.657 48.9348C183.657 46.7848 182.817 44.7648 181.297 43.2448L167.337 29.2848C164.197 26.1448 159.097 26.1548 155.957 29.2848L154.027 31.2148C150.877 34.3648 146.107 35.1347 142.167 33.1147C138.437 31.2147 134.547 29.5948 130.597 28.3048C126.357 26.9248 123.497 22.9648 123.497 18.4648V15.8447C123.497 11.4047 119.887 7.7948 115.447 7.7948H95.6969C91.2569 7.7948 87.6469 11.4047 87.6469 15.8447V18.4648C87.6469 22.9648 84.7969 26.9248 80.5469 28.3048C76.5969 29.5948 72.7068 31.2147 68.9868 33.1147C65.0368 35.1247 60.2768 34.3648 57.1268 31.2048L55.2069 29.2848C52.0669 26.1448 46.9669 26.1448 43.8269 29.2848L29.8668 43.2448C28.3468 44.7648 27.5068 46.7848 27.5068 48.9348C27.5068 51.0848 28.3468 53.1048 29.8668 54.6248L31.7969 56.5548C34.9469 59.7048 35.7169 64.4748 33.6969 68.4148C31.7969 72.1348 30.1768 76.0347 28.8868 79.9747C27.4968 84.2247 23.5469 87.0748 19.0469 87.0748H16.4269C11.9869 87.0748 8.37683 90.6848 8.37683 95.1248V114.865C8.37683 119.305 11.9869 122.915 16.4269 122.915H19.0469C23.5469 122.915 27.4968 125.765 28.8868 130.015C30.1768 133.965 31.7969 137.855 33.6969 141.585C35.7069 145.525 34.9469 150.295 31.7969 153.445L29.8668 155.375C26.7268 158.515 26.7268 163.615 29.8668 166.755L43.8269 180.715C46.9669 183.845 52.0669 183.855 55.2069 180.715L57.1368 178.785C60.2868 175.635 65.0568 174.875 68.9968 176.885C72.7168 178.785 76.6169 180.405 80.5669 181.695C84.8069 183.075 87.6669 187.035 87.6669 191.535V194.155C87.6669 198.595 91.2769 202.205 95.7169 202.205C97.8069 202.205 99.5068 203.905 99.5068 205.995C99.5068 208.085 97.8069 209.785 95.7169 209.785L95.7069 209.775Z" fill="#024985"/>
<path d="M105.587 161.115C74.637 161.115 49.457 135.934 49.457 104.984C49.457 74.0345 74.637 48.8545 105.587 48.8545C126.927 48.8545 146.147 60.7045 155.747 79.7745C156.687 81.6445 155.937 83.9245 154.067 84.8645C152.197 85.8045 149.917 85.0546 148.977 83.1846C140.667 66.6846 124.047 56.4346 105.587 56.4346C78.817 56.4346 57.047 78.2145 57.047 104.974C57.047 131.734 78.827 153.515 105.587 153.515C106.907 153.515 108.237 153.454 109.567 153.354C111.637 153.184 113.487 154.735 113.657 156.825C113.827 158.915 112.267 160.745 110.187 160.915C108.667 161.035 107.117 161.104 105.597 161.104L105.587 161.115Z" fill="#024985"/>
<path d="M244.446 209.775H119.296C114.026 209.775 109.276 207.065 106.606 202.525C103.936 197.985 103.856 192.515 106.416 187.905L168.996 75.0148C171.626 70.2648 176.446 67.4248 181.876 67.4248C187.306 67.4248 192.126 70.2648 194.756 75.0148L257.336 187.905C259.896 192.515 259.816 197.975 257.146 202.525C254.476 207.065 249.726 209.775 244.456 209.775H244.446ZM181.866 75.0048C179.226 75.0048 176.896 76.3848 175.616 78.6848L113.036 191.575C111.796 193.815 111.826 196.465 113.126 198.665C114.426 200.865 116.726 202.185 119.286 202.185H244.436C246.996 202.185 249.296 200.865 250.596 198.665C251.896 196.465 251.926 193.815 250.686 191.575L188.106 78.6848C186.826 76.3748 184.496 75.0048 181.856 75.0048H181.866Z" fill="#024985"/>
<path d="M181.866 165.665C179.776 165.665 178.076 163.965 178.076 161.875V115.325C178.076 113.235 179.776 111.535 181.866 111.535C183.956 111.535 185.656 113.235 185.656 115.325V161.875C185.656 163.965 183.956 165.665 181.866 165.665Z" fill="#024985"/>
<path d="M181.866 185.105C181.366 185.105 180.866 184.995 180.416 184.825C179.966 184.635 179.546 184.345 179.186 184.005C178.466 183.265 178.076 182.315 178.076 181.315C178.076 180.795 178.166 180.315 178.356 179.865C178.546 179.385 178.836 178.975 179.176 178.625C179.546 178.275 179.956 177.995 180.406 177.805C181.776 177.245 183.466 177.565 184.546 178.625C185.266 179.345 185.646 180.295 185.646 181.315C185.646 182.335 185.256 183.265 184.546 184.005C183.826 184.725 182.876 185.105 181.856 185.105H181.866Z" fill="#024985"/>
</svg>
