<svg width="60" height="60" viewBox="0 0 60 60" fill="none" xmlns="http://www.w3.org/2000/svg">
<path d="M58.1472 49.9169H1.8557C1.38487 49.9169 1.00195 49.534 1.00195 49.0631V11.5325C1.00195 11.0617 1.38487 10.6787 1.8557 10.6787C2.32652 10.6787 2.70949 11.0617 2.70949 11.5325V48.2094H57.2912V11.5325C57.2912 11.0617 57.6741 10.6787 58.145 10.6787C58.6158 10.6787 58.9988 11.0617 58.9988 11.5325V49.0631C58.9988 49.534 58.6158 49.9169 58.145 49.9169H58.1472Z" fill="black"/>
<path d="M30.0011 36.7748C29.8006 36.7748 29.6024 36.7049 29.4425 36.5652L1.29667 12.1771C1.02634 11.9428 0.931769 11.5666 1.05567 11.2332C1.17957 10.8998 1.49942 10.6768 1.85535 10.6768H58.1469C58.5028 10.6768 58.8227 10.8975 58.9466 11.2332C59.0705 11.5666 58.9759 11.945 58.7055 12.1771L30.5598 36.5652C30.3999 36.7049 30.1994 36.7748 30.0011 36.7748ZM4.14417 12.3866L29.9989 34.7901L55.8536 12.3866H4.14191H4.14417Z" fill="black"/>
<path d="M1.85509 49.9164C1.6163 49.9164 1.37754 49.8173 1.20858 49.6213C0.899956 49.2654 0.938226 48.7247 1.29416 48.4161L22.711 29.858C23.0669 29.5494 23.6076 29.5877 23.9162 29.9436C24.2248 30.2995 24.1865 30.8402 23.8306 31.1488L2.41376 49.7069C2.25157 49.8466 2.05333 49.9164 1.85509 49.9164Z" fill="black"/>
<path d="M58.1447 49.9173C57.9464 49.9173 57.7482 49.8497 57.586 49.7078L36.1692 31.1497C35.8132 30.8411 35.775 30.3004 36.0836 29.9445C36.3922 29.5886 36.9306 29.548 37.2888 29.8589L58.7056 48.417C59.0615 48.7256 59.0998 49.2663 58.7912 49.6222C58.6222 49.8182 58.3834 49.9173 58.1447 49.9173Z" fill="black"/>
</svg>
