<svg width="220" height="232" viewBox="0 0 220 232" fill="none" xmlns="http://www.w3.org/2000/svg">
<path d="M181.947 231.851H4.42272C2.26221 231.851 0.5 230.101 0.5 227.928V19.3964C0.5 17.2358 2.25014 15.4736 4.42272 15.4736H35.8528C38.0133 15.4736 39.7755 17.2238 39.7755 19.3964C39.7755 21.5689 38.0253 23.3191 35.8528 23.3191H8.33336V224.018H178.024V202.594C178.024 200.433 179.774 198.671 181.947 198.671C184.12 198.671 185.87 200.421 185.87 202.594V227.94C185.87 230.101 184.12 231.863 181.947 231.863V231.851Z" fill="#024985"/>
<path d="M181.947 134.302C179.786 134.302 178.024 132.552 178.024 130.379V23.3191H150.505C148.344 23.3191 146.582 21.5689 146.582 19.3964C146.582 17.2238 148.332 15.4736 150.505 15.4736H181.935C184.095 15.4736 185.858 17.2238 185.858 19.3964V130.379C185.858 132.54 184.107 134.302 181.935 134.302H181.947Z" fill="#024985"/>
<path d="M134.501 39.7101H51.87C49.7095 39.7101 47.9473 37.9599 47.9473 35.7873V3.92272C47.9473 1.76221 49.6974 0 51.87 0H134.501C136.661 0 138.423 1.75014 138.423 3.92272V35.7873C138.423 37.9479 136.673 39.7101 134.501 39.7101ZM55.7806 31.8767H130.578V7.84545H55.7806V31.8767Z" fill="#024985"/>
<path d="M113.147 143.788C112.109 143.788 111.107 143.378 110.383 142.641L89.8762 122.135C88.3433 120.602 88.3433 118.127 89.8762 116.594C91.4091 115.062 93.8834 115.062 95.4163 116.594L113.147 134.325L148.114 99.3465L126.533 77.7655L99.7373 104.561C98.2044 106.094 95.7302 106.094 94.1973 104.561C92.6644 103.028 92.6644 100.554 94.1973 99.0208L123.769 69.4495C125.301 67.9166 127.776 67.9166 129.309 69.4495L156.43 96.5705C157.166 97.3068 157.576 98.2964 157.576 99.3344C157.576 100.372 157.166 101.374 156.43 102.099L115.923 142.617C115.187 143.354 114.197 143.764 113.159 143.764L113.147 143.788Z" fill="#024985"/>
<path d="M158.229 104.235C154.861 104.235 151.699 102.932 149.321 100.542L125.35 76.5708C120.438 71.6584 120.438 63.6681 125.35 58.7556C130.263 53.8432 138.253 53.8432 143.165 58.7556L167.136 82.7266C172.049 87.6391 172.049 95.6292 167.136 100.542C164.759 102.919 161.596 104.235 158.229 104.235ZM130.878 64.2958C129.02 66.1546 129.02 69.172 130.878 71.0308L154.849 95.0016C156.648 96.8 159.786 96.8 161.584 95.0016C163.443 93.1429 163.443 90.1254 161.584 88.2667L137.613 64.2958C135.755 62.4371 132.737 62.4491 130.878 64.2958Z" fill="#024985"/>
<path d="M105.435 157.029C102.068 157.029 98.9054 155.726 96.5276 153.336L72.5567 129.365C70.1789 126.987 68.8633 123.825 68.8633 120.457C68.8633 117.09 70.1789 113.928 72.5567 111.55C74.9344 109.172 78.0968 107.856 81.4643 107.856C84.8318 107.856 87.9941 109.16 90.3719 111.55L114.343 135.521C116.72 137.899 118.036 141.061 118.036 144.428C118.036 147.796 116.72 150.958 114.343 153.336C111.965 155.714 108.803 157.029 105.435 157.029ZM81.4643 115.69C80.1969 115.69 79.002 116.185 78.0968 117.09C77.2036 117.983 76.6967 119.19 76.6967 120.457C76.6967 121.725 77.1916 122.92 78.0968 123.825L102.068 147.796C103.866 149.594 107.004 149.594 108.803 147.796C109.708 146.891 110.203 145.696 110.203 144.428C110.203 143.161 109.708 141.966 108.803 141.061L84.8318 117.09C83.9266 116.185 82.7316 115.69 81.4643 115.69Z" fill="#024985"/>
<path d="M204.892 205.707C202.623 205.707 200.487 204.826 198.881 203.221L135.068 139.407C133.535 137.874 133.535 135.4 135.068 133.867C136.601 132.334 139.075 132.334 140.608 133.867L204.421 197.681C204.747 198.007 205.037 198.007 205.363 197.681L211.156 191.887C211.639 191.404 211.699 190.897 211.663 190.777L136.854 116.172C135.321 114.64 135.321 112.165 136.854 110.632C138.387 109.112 140.861 109.1 142.394 110.632L217.276 185.345C220.45 188.52 220.197 193.951 216.709 197.439L210.915 203.233C209.31 204.838 207.173 205.719 204.904 205.719L204.892 205.707Z" fill="#024985"/>
<path d="M134.221 214.638H62.2606C60.1001 214.638 58.3379 212.888 58.3379 210.715V199.804C58.3379 193.818 63.2141 188.941 69.2008 188.941H154.439C160.425 188.941 165.301 193.818 165.301 199.804V210.655C165.301 212.816 163.551 214.566 161.391 214.578C161.391 214.578 138.651 214.638 134.221 214.638ZM66.1833 206.805H134.234C137.504 206.805 150.769 206.769 157.468 206.756V199.816C157.468 198.151 156.116 196.799 154.451 196.799H69.2129C67.5472 196.799 66.1954 198.151 66.1954 199.816V206.805H66.1833Z" fill="#024985"/>
</svg>
