<svg width="222" height="207" viewBox="0 0 222 207" fill="none" xmlns="http://www.w3.org/2000/svg">
<path d="M159.841 130.065C158.402 130.065 157.021 129.224 156.411 127.82L146.477 104.935H129.083C127.022 104.935 125.342 103.266 125.342 101.194C125.342 99.1223 127.011 97.4531 129.083 97.4531H148.928C150.413 97.4531 151.76 98.3395 152.359 99.6978L163.272 124.827C164.089 126.715 163.225 128.925 161.326 129.742C160.843 129.95 160.336 130.053 159.841 130.053V130.065Z" fill="#024985"/>
<path d="M61.6382 131.296C61.1433 131.296 60.6368 131.193 60.1533 130.986C58.2655 130.168 57.3906 127.958 58.2194 126.07L69.6731 99.6978C70.2602 98.328 71.6071 97.4531 73.1035 97.4531H78.1685C80.229 97.4531 81.9097 99.1223 81.9097 101.194C81.9097 103.266 80.2405 104.935 78.1685 104.935H75.5555L65.0801 129.063C64.47 130.468 63.0887 131.308 61.6498 131.308L61.6382 131.296Z" fill="#024985"/>
<path d="M193.028 206.488H28.9914C27.7366 206.488 26.5625 205.854 25.8718 204.795C25.1811 203.748 25.066 202.413 25.5725 201.261L34.2175 181.358C35.0348 179.471 37.2335 178.596 39.1328 179.425C41.0207 180.242 41.8955 182.452 41.0667 184.34L34.6895 199.017H187.341L180.895 184.179C180.077 182.291 180.941 180.081 182.829 179.263C184.728 178.446 186.927 179.309 187.744 181.197L196.458 201.261C196.964 202.413 196.849 203.748 196.159 204.795C195.468 205.843 194.294 206.488 193.039 206.488H193.028Z" fill="#024985"/>
<path d="M148.989 171.851C141.795 171.851 135.936 166.003 135.936 158.808V158.567C135.936 151.188 141.91 145.179 149.266 145.179H168.11L173.704 120.787C176.018 110.714 184.847 103.681 195.173 103.681H196.715C209.332 103.681 219.577 113.557 220.014 126.174L221.499 167.971C221.568 170.032 219.957 171.77 217.896 171.839C215.859 171.862 214.097 170.297 214.028 168.236L212.543 126.439C212.244 117.863 205.28 111.152 196.704 111.152H195.161C188.335 111.152 182.499 115.802 180.968 122.456L174.706 149.737C174.314 151.43 172.806 152.638 171.068 152.638H149.254C146.031 152.638 143.395 155.286 143.395 158.544V158.785C143.395 161.859 145.893 164.357 148.966 164.357H182.695C184.49 164.357 186.079 163.148 186.539 161.41L190.396 147.136C190.937 145.144 192.986 143.97 194.977 144.5C196.969 145.041 198.143 147.09 197.613 149.081L193.757 163.355C192.41 168.34 187.863 171.828 182.695 171.828H148.966L148.989 171.851Z" fill="#024985"/>
<path d="M195.981 111.163C184.4 111.163 174.973 101.735 174.973 90.1546C174.973 78.5743 184.4 69.1465 195.981 69.1465C207.561 69.1465 216.989 78.5743 216.989 90.1546C216.989 101.735 207.561 111.163 195.981 111.163ZM195.981 76.6174C188.51 76.6174 182.443 82.6953 182.443 90.1546C182.443 97.614 188.521 103.692 195.981 103.692C203.44 103.692 209.518 97.614 209.518 90.1546C209.518 82.6953 203.44 76.6174 195.981 76.6174Z" fill="#024985"/>
<path d="M73.035 171.852H39.3067C34.1382 171.852 29.5912 168.364 28.2444 163.38L24.3881 149.106C23.8471 147.114 25.0327 145.065 27.0242 144.524C29.0041 143.995 31.0646 145.169 31.6057 147.16L35.462 161.434C35.934 163.173 37.511 164.381 39.3067 164.381H73.035C76.1085 164.381 78.6064 161.883 78.6064 158.81V158.568C78.6064 155.31 75.9819 152.663 72.7472 152.663H50.9332C49.195 152.663 47.6755 151.454 47.2956 149.762L41.0334 122.48C39.5024 115.826 33.6662 111.176 26.84 111.176H25.2975C16.7216 111.176 9.76871 117.887 9.45791 126.463L7.97297 168.261C7.90391 170.321 6.14269 171.887 4.10519 171.864C2.04466 171.795 0.433072 170.056 0.50214 167.996L1.98707 126.198C2.43602 113.582 12.6696 103.705 25.286 103.705H26.8285C37.1657 103.705 45.9948 110.738 48.2971 120.811L53.8916 145.203H72.7357C80.0799 145.203 86.0657 151.212 86.0657 158.591V158.833C86.0657 166.027 80.218 171.875 73.0119 171.875L73.035 171.852Z" fill="#024985"/>
<path d="M26.0453 111.163C14.4649 111.163 5.03711 101.735 5.03711 90.1546C5.03711 78.5743 14.4649 69.1465 26.0453 69.1465C37.6256 69.1465 47.0534 78.5743 47.0534 90.1546C47.0534 101.735 37.6256 111.163 26.0453 111.163ZM26.0453 76.6174C18.5744 76.6174 12.5079 82.6953 12.5079 90.1546C12.5079 97.614 18.5859 103.692 26.0453 103.692C33.5046 103.692 39.5826 97.614 39.5826 90.1546C39.5826 82.6953 33.5046 76.6174 26.0453 76.6174Z" fill="#024985"/>
<path d="M105.922 103.588C104.932 103.588 103.977 103.196 103.286 102.494L74.6575 73.8656L60.1647 88.3583C58.7028 89.8202 56.343 89.8202 54.8811 88.3583C53.4191 86.8963 53.4191 84.5366 54.8811 83.0746L72.0214 65.9342C73.4834 64.4723 75.8431 64.4723 77.3051 65.9342L105.934 94.5629L161.556 38.9402C163.018 37.4783 165.378 37.4783 166.84 38.9402L175.923 48.0226L181.287 8.10139L141.366 13.4657L150.448 22.5481C151.91 24.01 151.91 26.3698 150.448 27.8318L108.558 69.7214C107.154 71.1258 104.679 71.1258 103.275 69.7214L74.646 41.0928L47.2375 68.5012C45.7756 69.9632 43.4158 69.9632 41.9539 68.5012C40.4919 67.0393 40.4919 64.6795 41.9539 63.2176L72.0099 33.1615C73.4718 31.6996 75.8316 31.6996 77.2936 33.1615L105.922 61.7902L142.528 25.1842L130.741 13.3966C129.739 12.3951 129.382 10.9101 129.843 9.56332C130.292 8.21649 131.477 7.24955 132.882 7.05386L185.132 0.0319489C186.283 -0.117698 187.445 0.262191 188.274 1.09101C189.103 1.91982 189.494 3.07093 189.333 4.23357L182.311 56.4834C182.127 57.8878 181.149 59.0735 179.802 59.5224C178.455 59.9829 176.97 59.6261 175.969 58.6246L164.181 46.837L108.558 102.46C107.856 103.162 106.912 103.553 105.922 103.553V103.588Z" fill="#024985"/>
</svg>
