<svg width="60" height="60" viewBox="0 0 60 60" fill="none" xmlns="http://www.w3.org/2000/svg">
<path d="M41.6498 59.042C38.9873 59.042 36.3277 58.3017 33.9556 56.8209L29.3311 53.9334C20.0165 48.1186 12.0119 40.1254 6.1857 30.8194L3.20141 26.0525C0.279764 21.3881 0.268361 15.354 3.17007 10.6782L6.05185 6.03661C7.16527 4.24262 9.09026 3.13207 11.2003 3.06373C13.299 2.98684 15.3009 3.98066 16.5311 5.69777L22.2149 13.6568C23.2429 15.0949 23.2002 17.074 22.1152 18.4664L18.5813 23.0084C17.0038 25.0387 16.944 27.9177 18.439 30.0107C21.6311 34.4843 25.5181 38.3684 29.9889 41.5605C32.0819 43.0555 34.9608 42.9957 36.9911 41.4182L41.5359 37.8843C42.9313 36.7994 44.9075 36.7595 46.3455 37.7875L55.5519 44.3626C56.9899 45.3906 57.8157 47.0593 57.7588 48.8276C57.7018 50.596 56.7706 52.2078 55.2671 53.1389L49.3128 56.838C46.9492 58.3073 44.2981 59.0392 41.6498 59.0392V59.042ZM11.4082 5.21935C11.3598 5.21935 11.3142 5.21935 11.2658 5.21935C9.85911 5.26491 8.62609 5.97681 7.88287 7.17281L5.00109 11.8144C2.52936 15.7954 2.54076 20.9325 5.02672 24.902L8.01101 29.6689C13.6664 38.6987 21.4346 46.4556 30.4701 52.0967L35.0946 54.9842C39.124 57.4986 44.1329 57.5072 48.168 55.0013L54.1252 51.3022C55.0251 50.7441 55.5633 49.8158 55.5974 48.7565C55.6316 47.6971 55.156 46.7347 54.2932 46.1196L45.0869 39.5444C44.4206 39.0689 43.5036 39.086 42.8572 39.59L38.3124 43.1239C35.5332 45.2852 31.5949 45.365 28.7302 43.3204C24.063 39.9887 20.008 35.9337 16.6763 31.2664C14.6317 28.4017 14.7114 24.4607 16.8728 21.6842L20.4067 17.1394C20.9107 16.493 20.9278 15.5761 20.4522 14.9098L14.7684 6.95072C13.9768 5.843 12.758 5.2165 11.4082 5.2165V5.21935Z" fill="black"/>
<path d="M57.9225 27.7068C57.3274 27.7068 56.8433 27.2227 56.8433 26.6276C56.8433 13.6881 46.3156 3.16043 33.3761 3.16043C32.781 3.16043 32.2969 2.67632 32.2969 2.08117C32.2969 1.48602 32.781 1.00195 33.3761 1.00195C47.506 1.00195 59.0017 12.4978 59.0017 26.6304C59.0017 27.2256 58.5177 27.7097 57.9225 27.7097V27.7068Z" fill="black"/>
<path d="M45.4101 27.7071C44.815 27.7071 44.3309 27.2231 44.3309 26.6279C44.3309 20.5881 39.4159 15.6732 33.3761 15.6732C32.781 15.6732 32.2969 15.1891 32.2969 14.5939C32.2969 13.9988 32.781 13.5146 33.3761 13.5146C40.6062 13.5146 46.4894 19.3978 46.4894 26.6279C46.4894 27.2231 46.0053 27.7071 45.4101 27.7071Z" fill="black"/>
</svg>
