<svg width="238" height="232" viewBox="0 0 238 232" fill="none" xmlns="http://www.w3.org/2000/svg">
<path d="M119.556 167.865C118.566 167.865 117.596 167.475 116.876 166.755L71.2457 121.125C70.2257 120.105 69.876 118.595 70.336 117.235C91.346 55.0347 143.896 12.3947 210.896 3.17466L233.686 0.0346429C234.856 -0.125357 236.046 0.27466 236.886 1.11466C237.726 1.95466 238.126 3.13461 237.956 4.31461L234.826 27.1047C225.606 94.1047 182.976 146.655 120.766 167.665C120.366 167.795 119.956 167.865 119.556 167.865ZM78.2857 117.445L120.556 159.715C178.766 139.145 218.606 89.3546 227.316 26.0746L229.766 8.23466L211.926 10.6846C148.636 19.3846 98.8457 59.2246 78.2857 117.435V117.445Z" fill="#024985"/>
<path d="M224.915 55.7749C217.405 55.7749 206.755 49.9249 197.415 40.5849C187.675 30.8549 181.725 19.6849 182.255 12.1449C182.405 10.0549 184.205 8.48489 186.305 8.62489C188.395 8.77489 189.965 10.5849 189.825 12.6749C189.515 17.1349 193.865 26.3149 202.775 35.2249C211.695 44.1449 220.855 48.4949 225.325 48.1849C227.365 48.0349 229.225 49.6149 229.375 51.7049C229.525 53.7949 227.945 55.6049 225.855 55.7549C225.545 55.7749 225.225 55.7849 224.905 55.7849L224.915 55.7749Z" fill="#024985"/>
<path d="M155.275 102.795C149.915 102.795 144.875 100.705 141.075 96.9148C137.285 93.1248 135.195 88.0848 135.195 82.7148C135.195 77.3448 137.285 72.3048 141.075 68.5148C144.865 64.7248 149.905 62.6348 155.275 62.6348C160.645 62.6348 165.675 64.7248 169.475 68.5148C173.265 72.3048 175.355 77.3448 175.355 82.7148C175.355 88.0848 173.265 93.1148 169.475 96.9148C165.685 100.705 160.645 102.795 155.275 102.795ZM155.275 70.2248C151.935 70.2248 148.795 71.5248 146.445 73.8848C144.085 76.2448 142.785 79.3848 142.785 82.7248C142.785 86.0648 144.085 89.1947 146.445 91.5547C148.805 93.9147 151.945 95.2148 155.275 95.2148C158.605 95.2148 161.755 93.9147 164.105 91.5547C166.465 89.1947 167.765 86.0548 167.765 82.7248C167.765 79.3948 166.465 76.2448 164.105 73.8848C161.745 71.5248 158.605 70.2248 155.275 70.2248Z" fill="#024985"/>
<path d="M44.0952 130.924C43.1052 130.924 42.135 130.534 41.415 129.814L30.9253 119.314C29.8053 118.194 29.495 116.494 30.165 115.054L34.6055 105.404C44.8255 83.1644 68.6553 71.0044 93.9053 75.1344C95.1753 75.3444 96.2554 76.1844 96.7754 77.3644C97.2954 78.5444 97.1651 79.9044 96.4551 80.9844C83.4551 100.494 77.6252 119.354 77.5752 119.544C77.2052 120.764 76.2354 121.724 75.0054 122.084L45.1753 130.774C44.8253 130.874 44.4652 130.924 44.1152 130.924H44.0952ZM38.1553 115.824L45.1953 122.864L70.9453 115.364C72.6253 110.414 77.6354 96.9544 86.7954 81.9944C67.2054 80.9944 49.4654 91.1944 41.4854 108.574L38.1553 115.824Z" fill="#024985"/>
<path d="M121.355 208.175C120.375 208.175 119.395 207.795 118.675 207.065L108.175 196.575C107.195 195.595 106.825 194.165 107.215 192.835L115.905 163.005C116.265 161.775 117.215 160.815 118.445 160.435C118.635 160.375 137.495 154.555 157.005 141.545C158.075 140.825 159.445 140.705 160.625 141.225C161.805 141.735 162.645 142.815 162.855 144.085C166.985 169.335 154.825 193.175 132.595 203.385L122.945 207.825C122.435 208.055 121.895 208.175 121.365 208.175H121.355ZM115.125 192.795L122.165 199.835L129.425 196.505C146.795 188.525 156.995 170.775 156.005 151.195C141.055 160.355 127.585 165.365 122.635 167.045L115.125 192.795Z" fill="#024985"/>
<path d="M77.4948 164.324C76.5248 164.324 75.5551 163.954 74.8151 163.214C73.3351 161.734 73.3351 159.334 74.8151 157.854L123.535 109.134C125.015 107.654 127.415 107.654 128.895 109.134C130.375 110.614 130.375 113.014 128.895 114.494L80.1749 163.214C79.4349 163.954 78.4648 164.324 77.4948 164.324Z" fill="#024985"/>
<path d="M40.1964 176.585C39.2264 176.585 38.2563 176.215 37.5163 175.475C36.0362 173.995 36.0362 171.595 37.5163 170.115L58.5665 149.065C60.0465 147.585 62.4464 147.585 63.9264 149.065C65.4064 150.545 65.4064 152.945 63.9264 154.425L42.8761 175.475C42.1361 176.215 41.1664 176.585 40.1964 176.585Z" fill="#024985"/>
<path d="M3.79604 154.225C2.82604 154.225 1.85586 153.855 1.11586 153.115C-0.364141 151.635 -0.364141 149.235 1.11586 147.755L18.6657 130.205C20.1457 128.725 22.546 128.725 24.026 130.205C25.506 131.685 25.506 134.085 24.026 135.565L6.47572 153.115C5.73572 153.855 4.76604 154.225 3.79604 154.225Z" fill="#024985"/>
<path d="M50.2448 225.274C49.2748 225.274 48.3051 224.904 47.5651 224.164C46.0851 222.684 46.0851 220.284 47.5651 218.804L81.1847 185.184C82.6647 183.704 85.0651 183.704 86.5451 185.184C88.0251 186.664 88.0251 189.064 86.5451 190.544L52.9249 224.164C52.1849 224.904 51.2148 225.274 50.2448 225.274Z" fill="#024985"/>
<path d="M102.706 231.565C101.736 231.565 100.766 231.195 100.026 230.455C98.546 228.975 98.546 226.575 100.026 225.095L110.556 214.565C112.036 213.085 114.436 213.085 115.916 214.565C117.396 216.045 117.396 218.445 115.916 219.925L105.386 230.455C104.646 231.195 103.676 231.565 102.706 231.565Z" fill="#024985"/>
</svg>
