<svg width="49" height="48" viewBox="0 0 49 48" fill="none" xmlns="http://www.w3.org/2000/svg">
<path d="M4.60938 34V33.6996C4.60938 33.0666 4.60938 32.7501 4.65779 32.4418C4.70078 32.168 4.7721 31.8995 4.8706 31.6404C4.98155 31.3487 5.13857 31.0739 5.45262 30.5243L12.6094 18M4.60938 34C4.60938 38.4183 8.1911 42 12.6094 42C17.0277 42 20.6094 38.4183 20.6094 34M4.60938 34V33.6C4.60938 33.0399 4.60938 32.7599 4.71837 32.546C4.81424 32.3578 4.96722 32.2049 5.15538 32.109C5.3693 32 5.64932 32 6.20938 32H19.0094C19.5694 32 19.8495 32 20.0634 32.109C20.2515 32.2049 20.4045 32.3578 20.5004 32.546C20.6094 32.7599 20.6094 33.0399 20.6094 33.6V34M12.6094 18L19.7661 30.5243C20.0802 31.0739 20.2372 31.3487 20.3481 31.6404C20.4467 31.8995 20.518 32.168 20.561 32.4418C20.6094 32.7501 20.6094 33.0666 20.6094 33.6996V34M12.6094 18L36.6094 14M28.6094 30V29.6996C28.6094 29.0666 28.6094 28.7501 28.6578 28.4418C28.7008 28.168 28.7721 27.8995 28.8706 27.6404C28.9815 27.3487 29.1386 27.0739 29.4526 26.5243L36.6094 14M28.6094 30C28.6094 34.4183 32.1911 38 36.6094 38C41.0277 38 44.6094 34.4183 44.6094 30M28.6094 30V29.6C28.6094 29.0399 28.6094 28.7599 28.7184 28.546C28.8142 28.3578 28.9672 28.2049 29.1554 28.109C29.3693 28 29.6493 28 30.2094 28H43.0094C43.5694 28 43.8495 28 44.0634 28.109C44.2515 28.2049 44.4045 28.3578 44.5004 28.546C44.6094 28.7599 44.6094 29.0399 44.6094 29.6V30M36.6094 14L43.7661 26.5243C44.0802 27.0739 44.2372 27.3487 44.3481 27.6404C44.4467 27.8995 44.518 28.168 44.561 28.4418C44.6094 28.7501 44.6094 29.0666 44.6094 29.6996V30M24.6094 6V16" stroke="#024985" stroke-width="3" stroke-linecap="round" stroke-linejoin="round"/>
</svg>
