<svg width="366" height="225" viewBox="0 0 366 225" fill="none" xmlns="http://www.w3.org/2000/svg">
<path d="M279.902 137.78C251.782 137.78 228.902 114.9 228.902 86.7803C228.902 58.6603 251.782 35.7803 279.902 35.7803C308.022 35.7803 330.902 58.6603 330.902 86.7803C330.902 114.9 308.022 137.78 279.902 137.78ZM279.902 43.3703C255.962 43.3703 236.482 62.8503 236.482 86.7903C236.482 110.73 255.962 130.21 279.902 130.21C303.842 130.21 323.322 110.73 323.322 86.7903C323.322 62.8503 303.842 43.3703 279.902 43.3703Z" fill="#024985"/>
<path d="M328.333 139C327.363 139 326.393 138.63 325.653 137.89L317.823 130.06C316.343 128.58 316.343 126.18 317.823 124.7C319.303 123.22 321.703 123.22 323.183 124.7L331.013 132.53C332.493 134.01 332.493 136.41 331.013 137.89C330.273 138.63 329.303 139 328.333 139Z" fill="#024985"/>
<path d="M352.834 172.62C350.584 172.62 348.344 171.77 346.634 170.06L323.584 147C321.924 145.35 321.014 143.14 321.014 140.8C321.014 138.46 321.924 136.26 323.584 134.6L327.724 130.46C331.034 127.15 336.814 127.14 340.124 130.46L363.174 153.51C366.594 156.93 366.594 162.49 363.174 165.91L359.034 170.05C357.324 171.76 355.084 172.61 352.834 172.61V172.62ZM333.914 135.47C333.694 135.47 333.364 135.53 333.084 135.81L328.944 139.95C328.654 140.24 328.594 140.56 328.594 140.79C328.594 141.02 328.654 141.34 328.944 141.63L351.994 164.69C352.294 164.99 352.644 165.04 352.834 165.04C353.024 165.04 353.374 164.99 353.674 164.69L357.814 160.55C358.114 160.25 358.164 159.9 358.164 159.71C358.164 159.52 358.114 159.17 357.814 158.87L334.754 135.82C334.464 135.53 334.144 135.47 333.914 135.47Z" fill="#024985"/>
<path d="M105.641 132.71H82.9409C76.8909 132.71 71.9609 127.78 71.9609 121.73V99.0298C71.9609 92.9798 76.8909 88.0498 82.9409 88.0498H104.511C106.601 88.0498 108.301 89.7498 108.301 91.8398C108.301 93.9298 106.601 95.6298 104.511 95.6298H82.9409C81.0709 95.6298 79.5409 97.1498 79.5409 99.0298V121.73C79.5409 123.6 81.0609 125.13 82.9409 125.13H105.641C107.511 125.13 109.041 123.61 109.041 121.73V117.62C109.041 115.53 110.741 113.83 112.831 113.83C114.921 113.83 116.621 115.53 116.621 117.62V121.73C116.621 127.78 111.691 132.71 105.641 132.71Z" fill="#024985"/>
<path d="M95.6903 120.879C95.6203 120.879 95.5604 120.879 95.4904 120.879C94.4304 120.819 93.4504 120.329 92.7704 119.519L84.1604 109.169C82.8204 107.559 83.0404 105.169 84.6504 103.829C86.2604 102.489 88.6504 102.709 89.9904 104.319L95.9804 111.519L112.76 95.1993C114.26 93.7393 116.66 93.7693 118.12 95.2693C119.58 96.7693 119.55 99.1694 118.05 100.629L98.3404 119.809C97.6304 120.499 96.6804 120.879 95.7004 120.879H95.6903Z" fill="#024985"/>
<path d="M185.812 106.28H134.392C132.302 106.28 130.602 104.58 130.602 102.49C130.602 100.4 132.302 98.7002 134.392 98.7002H185.812C187.902 98.7002 189.602 100.4 189.602 102.49C189.602 104.58 187.902 106.28 185.812 106.28Z" fill="#024985"/>
<path d="M212.762 122.06H134.392C132.302 122.06 130.602 120.361 130.602 118.271C130.602 116.181 132.302 114.48 134.392 114.48H212.762C214.852 114.48 216.552 116.181 216.552 118.271C216.552 120.361 214.852 122.06 212.762 122.06Z" fill="#024985"/>
<path d="M105.641 72.7195H82.9409C76.8909 72.7195 71.9609 67.7896 71.9609 61.7396V39.0396C71.9609 32.9896 76.8909 28.0596 82.9409 28.0596H104.511C106.601 28.0596 108.301 29.7595 108.301 31.8495C108.301 33.9395 106.601 35.6395 104.511 35.6395H82.9409C81.0709 35.6395 79.5409 37.1596 79.5409 39.0396V61.7396C79.5409 63.6096 81.0609 65.1395 82.9409 65.1395H105.641C107.511 65.1395 109.041 63.6196 109.041 61.7396V57.6296C109.041 55.5396 110.741 53.8395 112.831 53.8395C114.921 53.8395 116.621 55.5396 116.621 57.6296V61.7396C116.621 67.7896 111.691 72.7195 105.641 72.7195Z" fill="#024985"/>
<path d="M95.6903 60.8891C95.6203 60.8891 95.5604 60.8891 95.4904 60.8891C94.4304 60.8391 93.4504 60.3391 92.7704 59.5291L84.1604 49.1791C82.8204 47.5691 83.0404 45.1791 84.6504 43.8391C86.2604 42.4991 88.6504 42.7191 89.9904 44.3291L95.9804 51.5291L112.76 35.2091C114.26 33.7491 116.66 33.7791 118.12 35.2791C119.58 36.7791 119.55 39.1791 118.05 40.6391L98.3404 59.8191C97.6304 60.5091 96.6804 60.8891 95.7004 60.8891H95.6903Z" fill="#024985"/>
<path d="M185.812 46.2997H134.392C132.302 46.2997 130.602 44.5997 130.602 42.5097C130.602 40.4197 132.302 38.7197 134.392 38.7197H185.812C187.902 38.7197 189.602 40.4197 189.602 42.5097C189.602 44.5997 187.902 46.2997 185.812 46.2997Z" fill="#024985"/>
<path d="M212.762 62.08H134.392C132.302 62.08 130.602 60.38 130.602 58.29C130.602 56.2 132.302 54.5 134.392 54.5H212.762C214.852 54.5 216.552 56.2 216.552 58.29C216.552 60.38 214.852 62.08 212.762 62.08Z" fill="#024985"/>
<path d="M281.712 162.59H46.6123C44.5223 162.59 42.8223 160.89 42.8223 158.8V14.14C42.8223 6.33995 49.1623 0 56.9623 0H271.362C279.162 0 285.502 6.33995 285.502 14.14V27.23C285.502 29.32 283.802 31.02 281.712 31.02C279.622 31.02 277.922 29.32 277.922 27.23V14.14C277.922 10.52 274.982 7.57996 271.362 7.57996H56.9623C53.3423 7.57996 50.4023 10.52 50.4023 14.14V155.01H277.912V145.76C277.912 143.67 279.612 141.97 281.702 141.97C283.792 141.97 285.492 143.67 285.492 145.76V158.8C285.492 160.89 283.792 162.59 281.702 162.59H281.712Z" fill="#024985"/>
<path d="M319.992 209.81H8.34238C5.04238 209.81 2.10241 207.83 0.872406 204.77C-0.357594 201.71 0.372401 198.25 2.7424 195.95L43.9924 156.07C44.7024 155.39 45.6424 155 46.6324 155H281.732C282.712 155 283.662 155.38 284.372 156.07L325.622 195.95C327.992 198.24 328.732 201.71 327.492 204.77C326.252 207.83 323.322 209.81 320.022 209.81H319.992ZM48.1424 162.59L8.00241 201.4C7.92241 201.47 7.77243 201.62 7.89243 201.92C8.01243 202.22 8.23237 202.22 8.33237 202.22H319.982C320.082 202.22 320.302 202.22 320.422 201.92C320.542 201.62 320.382 201.47 320.312 201.4L280.172 162.59H48.1424Z" fill="#024985"/>
<path d="M304.842 224.66H23.4617C10.6717 224.66 0.261719 214.25 0.261719 201.46C0.261719 199.37 1.96164 197.67 4.05164 197.67C6.14164 197.67 7.84167 199.37 7.84167 201.46C7.84167 210.07 14.8517 217.08 23.4617 217.08H304.842C313.452 217.08 320.462 210.07 320.462 201.46C320.462 199.37 322.162 197.67 324.252 197.67C326.342 197.67 328.042 199.37 328.042 201.46C328.042 214.25 317.632 224.66 304.842 224.66Z" fill="#024985"/>
<path d="M277.791 104.24C276.831 104.24 275.901 103.88 275.201 103.22L261.271 90.17C259.741 88.74 259.661 86.34 261.101 84.81C262.531 83.28 264.931 83.2 266.461 84.64L277.391 94.88L296.591 70.77C297.891 69.13 300.281 68.86 301.921 70.16C303.561 71.46 303.831 73.85 302.531 75.49L280.771 102.82C280.111 103.65 279.131 104.16 278.081 104.24C277.991 104.24 277.891 104.25 277.801 104.25L277.791 104.24Z" fill="#024985"/>
</svg>
