<svg width="176" height="223" viewBox="0 0 176 223" fill="none" xmlns="http://www.w3.org/2000/svg">
<path d="M87.9951 222.987C87.4251 222.987 86.8449 222.857 86.3149 222.597L47.875 203.658C18.675 189.268 0.544922 160.117 0.544922 127.567V41.0675C0.544922 39.2475 1.835 37.6875 3.625 37.3375C42.785 29.8275 68.7249 18.3175 85.2649 1.1175C86.6949 -0.3725 89.3051 -0.3725 90.7351 1.1175C107.275 18.3175 133.215 29.8275 172.375 37.3375C174.165 37.6775 175.455 39.2475 175.455 41.0675V127.567C175.455 160.117 157.315 189.278 128.125 203.658L89.6851 222.597C89.1551 222.857 88.5851 222.987 88.0051 222.987H87.9951ZM8.13501 44.1874V127.557C8.13501 157.197 24.6551 183.747 51.2351 196.847L87.9951 214.967L124.755 196.847C151.335 183.747 167.855 157.197 167.855 127.557V44.1874C130.795 36.7474 105.225 25.5275 87.9951 9.09748C70.7551 25.5275 45.195 36.7474 8.13501 44.1874Z" fill="#024985"/>
<path d="M82.8257 150.318C81.8557 150.318 80.8858 149.948 80.1458 149.208L43.3657 112.428C42.6557 111.718 42.2559 110.748 42.2559 109.748C42.2559 108.748 42.6557 107.778 43.3657 107.068L56.5457 93.8879C57.2557 93.1779 58.2258 92.7779 59.2258 92.7779C60.2358 92.7779 61.1958 93.1779 61.9058 93.8879L82.8157 114.798L123.876 73.7379C125.296 72.3179 127.816 72.3179 129.236 73.7379L142.416 86.9178C143.126 87.6278 143.526 88.5978 143.526 89.5978C143.526 90.5978 143.126 91.5679 142.416 92.2779L85.4958 149.198C84.7558 149.938 83.7857 150.308 82.8157 150.308L82.8257 150.318ZM51.4158 109.748L82.8257 141.158L134.386 89.5978L126.566 81.7779L85.5059 122.838C84.7959 123.548 83.8257 123.948 82.8257 123.948C81.8157 123.948 80.8558 123.548 80.1458 122.838L59.2358 101.928L51.4158 109.748Z" fill="#024985"/>
</svg>
