<svg width="223" height="223" viewBox="0 0 223 223" fill="none" xmlns="http://www.w3.org/2000/svg">
<path d="M111.261 0.000238352C172.778 -0.124944 222.263 49.787 222.241 110.877C222.219 173.029 172.81 222.053 111.574 222.24C49.1781 222.43 0.330075 172.694 0.00163633 111.473C-0.329037 49.8284 49.4998 -0.300424 111.26 0.00135544L111.261 0.000238352ZM210.123 110.637C210.54 105.273 209.693 99.5985 208.739 93.9373C207.158 84.5587 204.204 75.6126 200.008 67.0935C196.505 59.9816 192.165 53.4229 187.048 47.3326C182.12 41.468 176.639 36.2215 170.563 31.6177C162.557 25.5509 153.731 20.8688 144.279 17.5358C135.47 14.4297 126.347 12.4246 116.983 12.0457C107.159 11.6478 97.3693 12.0714 87.8054 14.7259C84.4071 15.6693 80.9104 16.3567 77.6372 17.623C71.4885 20.0026 65.4772 22.7186 59.8278 26.1857C55.3224 28.9509 51.0259 31.9955 47.0164 35.4257C42.6674 39.1466 38.7005 43.2317 34.9938 47.6254C30.4526 53.0094 26.6532 58.8482 23.3208 64.9956C20.3514 70.4734 18.0122 76.2765 16.2381 82.2372C14.0932 89.443 12.5058 96.8467 12.1986 104.359C11.9003 111.653 11.9796 118.941 13.2554 126.262C14.9143 135.786 17.5206 144.911 21.6429 153.617C24.4111 159.464 27.8028 164.916 31.6345 170.159C37.294 177.902 43.9778 184.558 51.5755 190.317C55.958 193.638 60.6534 196.481 65.533 199.065C72.6056 202.81 80.0581 205.446 87.763 207.421C93.2325 208.823 98.8282 209.392 104.459 209.885C110.387 210.405 116.259 210.083 122.117 209.529C127.325 209.036 132.52 208.233 137.527 206.548C140.584 205.518 143.769 204.827 146.741 203.605C154.537 200.402 162.049 196.666 168.863 191.587C171.642 189.515 174.418 187.433 177.007 185.155C184.061 178.944 190.064 171.765 195.081 163.839C199.997 156.074 203.859 147.727 206.278 138.854C208.751 129.783 210.591 120.554 210.124 110.636L210.123 110.637Z" fill="#024985"/>
<path d="M109.62 172.42C100.573 172.796 90.9978 170.768 81.7581 167.333C74.1873 164.518 67.2429 160.496 60.9599 155.316C54.289 149.816 48.8756 143.327 44.9003 135.719C41.938 130.05 39.7122 124.076 38.9848 117.623C38.7225 115.299 38.1184 113.012 39.0958 110.744C40.2692 108.018 43.209 106.22 45.724 106.619C49.0707 107.15 51.4377 109.71 51.8009 112.945C52.7367 121.29 55.5566 128.906 60.6248 135.686C65.7277 142.513 72.0925 147.757 79.6544 151.69C87.78 155.917 96.3473 158.233 105.495 158.847C113.111 159.359 120.567 158.747 127.95 156.962C136.641 154.861 144.614 151.079 151.64 145.654C157.073 141.457 161.779 136.456 165.29 130.398C167.685 126.264 169.415 121.926 170.808 117.394C171.904 113.828 174.936 112.125 178.541 112.831C182.076 113.524 184.048 116.215 183.624 119.913C183.21 123.536 181.929 126.926 180.479 130.233C178.692 134.312 176.54 138.237 173.868 141.786C171.207 145.317 168.34 148.689 165.027 151.716C161.495 154.944 157.785 157.884 153.741 160.384C146.263 165.008 138.225 168.215 129.616 170.256C123.293 171.756 116.977 172.456 109.618 172.418L109.62 172.42Z" fill="#024985"/>
<path d="M69.715 92.5128C63.5984 93.0033 57.4493 87.1447 57.4885 80.3311C57.5287 73.1815 63.4485 67.8839 69.9051 68.006C76.2633 68.1269 81.89 73.1154 82.0242 80.396C82.1406 86.7315 76.1637 92.973 69.7161 92.5117L69.715 92.5128Z" fill="#024985"/>
<path d="M153.807 98.1434C147.45 98.3963 141.614 92.2371 141.617 85.9392C141.619 79.6021 146.902 73.4877 153.95 73.6152C161.203 73.7473 166.148 79.5114 166.155 86.0679C166.162 92.2617 160.797 98.2262 153.808 98.1445L153.807 98.1434Z" fill="#024985"/>
</svg>
