<svg width="264" height="235" viewBox="0 0 264 235" fill="none" xmlns="http://www.w3.org/2000/svg">
<path d="M259.749 234.631C257.989 234.631 256.409 233.391 256.039 231.601L253.709 220.231C251.129 207.611 240.849 197.741 228.149 195.661L168.179 185.861L133.839 204.991C132.689 205.631 131.299 205.631 130.149 204.991L95.8093 185.861L35.8391 195.661C23.1291 197.741 12.8591 207.611 10.2791 220.231L7.94918 231.601C7.52918 233.651 5.5192 234.981 3.4692 234.561C1.4192 234.141 0.0891185 232.141 0.509118 230.081L2.8392 218.711C6.0492 203.031 18.8191 190.761 34.6091 188.181L95.8891 178.161C96.7291 178.021 97.5991 178.171 98.3491 178.591L131.999 197.341L165.649 178.591C166.399 178.171 167.269 178.021 168.109 178.161L229.389 188.181C245.189 190.761 257.949 203.031 261.159 218.711L263.489 230.081C263.909 232.131 262.589 234.141 260.529 234.561C260.269 234.611 260.019 234.641 259.759 234.641L259.749 234.631Z" fill="#024985"/>
<path d="M96.4882 185.691C95.9882 185.691 95.4882 185.591 94.9982 185.381C93.0682 184.561 92.1782 182.331 92.9982 180.401L98.1081 168.471C98.9281 166.541 101.158 165.651 103.088 166.471C105.018 167.291 105.908 169.521 105.088 171.451L99.9882 183.381C99.3682 184.821 97.9682 185.681 96.4982 185.681L96.4882 185.691Z" fill="#024985"/>
<path d="M167.469 185.691C165.999 185.691 164.599 184.831 163.979 183.391L158.879 171.461C158.059 169.531 158.949 167.301 160.879 166.481C162.809 165.651 165.039 166.551 165.859 168.481L170.959 180.411C171.779 182.341 170.889 184.571 168.959 185.391C168.469 185.601 167.969 185.701 167.469 185.701V185.691Z" fill="#024985"/>
<path d="M86.0496 123.421C84.4796 123.421 83.0195 122.44 82.4695 120.88C81.8095 118.99 81.1995 117.06 80.6595 115.12C74.8195 110.9 72.6195 98.3105 71.9095 92.6705C71.9095 92.5905 71.8895 92.5105 71.8895 92.4405C71.6995 89.4705 71.1595 81.0005 78.4395 76.5105C78.2295 69.5305 78.2994 49.8304 84.8294 36.9704C85.7794 35.1004 88.0595 34.3505 89.9295 35.3005C91.7995 36.2505 92.5394 38.5305 91.5994 40.4005C84.6694 54.0505 86.1095 78.3005 86.1295 78.5405C86.2295 80.1805 85.2696 81.6905 83.7496 82.3005C80.8996 83.4405 79.0795 85.5004 79.4595 91.8404C80.4895 99.8204 83.2294 108.14 85.1194 108.99C86.3394 109.39 87.2494 110.38 87.5794 111.62C88.1794 113.9 88.8695 116.17 89.6395 118.37C90.3295 120.35 89.2896 122.51 87.3096 123.2C86.8996 123.35 86.4696 123.41 86.0596 123.41L86.0496 123.421Z" fill="#024985"/>
<path d="M131.989 163.93C123.179 163.93 114.909 161.31 107.399 156.15C105.669 154.96 105.239 152.6 106.419 150.87C107.609 149.14 109.969 148.71 111.699 149.89C117.919 154.17 124.749 156.34 131.989 156.34C163.649 156.34 174.239 122.08 176.719 111.58C177.019 110.33 177.929 109.31 179.139 108.88C180.959 107.96 183.579 99.6303 184.519 91.7504C184.909 85.5303 183.089 83.4504 180.229 82.3104C178.739 81.7104 177.789 80.2504 177.849 78.6504C178.159 70.1704 177.609 62.8403 176.159 56.5803C176.159 56.5403 176.139 56.5003 176.129 56.4603C175.459 53.6503 173.899 51.5703 171.339 50.1103C163.939 45.9003 148.079 46.9504 128.899 52.9404C112.109 58.1804 99.6787 57.9504 91.9387 52.2604C84.6387 46.8904 84.5488 38.7504 84.5488 38.4104C84.5488 37.3504 84.9988 36.3303 85.7788 35.6203C102.459 20.3103 119.429 13.2904 136.219 14.7604C160.059 16.8504 174.459 35.3203 175.059 36.1103C178.959 41.1703 181.759 47.2903 183.469 54.5803C183.479 54.6303 183.489 54.6803 183.499 54.7203C183.499 54.7603 183.519 54.7903 183.519 54.8303C184.979 61.1603 185.629 68.3603 185.479 76.5003C192.779 80.9903 192.239 89.4804 192.049 92.4404C191.379 98.1804 189.319 110.61 183.689 114.92C175.909 145.65 156.659 163.94 131.959 163.94L131.989 163.93ZM92.3687 39.9004C92.7387 41.5404 93.7688 44.2203 96.5488 46.2203C100.469 49.0403 108.879 51.2404 126.649 45.6904C137.569 42.2804 156.329 37.6903 169.459 41.2403C169.329 41.0603 169.199 40.8903 169.059 40.7103C168.929 40.5403 155.969 24.0404 135.489 22.2904C121.399 21.0904 106.899 27.0104 92.3687 39.8904V39.9004Z" fill="#024985"/>
<path d="M207.269 108.78H200.809C199.749 108.78 198.729 108.33 198.009 107.55C197.289 106.76 196.939 105.71 197.029 104.65C197.079 104.14 201.319 53.06 175.979 25.36C165.199 13.57 150.399 7.59998 132.009 7.59998C113.619 7.59998 99.0184 13.54 88.0984 25.26C62.2784 52.96 65.5784 104.21 65.6184 104.72C65.6884 105.77 65.3284 106.8 64.6084 107.57C63.8884 108.34 62.8884 108.78 61.8284 108.78H55.3784C48.1784 108.78 42.3184 102.92 42.3184 95.72V80.35C42.3184 76.86 43.6784 73.58 46.1484 71.11C48.6184 68.65 51.8884 67.29 55.3784 67.29H60.7185C63.7985 51.38 70.0486 33.5 82.5286 20.1C94.9486 6.75998 111.599 0 132.009 0C152.419 0 169.318 6.81 181.598 20.25C193.988 33.81 199.928 51.9 202.698 67.91H207.269C214.469 67.91 220.328 73.77 220.328 80.97V95.72C220.328 102.92 214.469 108.78 207.269 108.78ZM204.838 101.19H207.269C210.289 101.19 212.739 98.74 212.739 95.72V80.97C212.739 77.95 210.289 75.5 207.269 75.5H203.799C205.139 86.61 205.048 96.0401 204.838 101.19ZM55.3784 74.88C53.9184 74.88 52.5486 75.45 51.5186 76.48C50.4886 77.51 49.9185 78.89 49.9185 80.35V95.72C49.9185 98.74 52.3684 101.19 55.3884 101.19H57.8884C57.7684 95.9701 57.8485 86.28 59.4585 74.88H55.3984H55.3784Z" fill="#024985"/>
<path d="M131.319 144.45C100.399 144.45 78.7092 138.03 66.8292 125.36C57.4692 115.38 58.0194 105.17 58.0394 104.74C58.1794 102.65 59.9892 101.08 62.0692 101.2C64.1492 101.34 65.7292 103.12 65.6092 105.2C65.5992 105.56 65.3794 112.87 72.5594 120.39C79.7394 127.91 95.7694 136.87 131.309 136.87C133.399 136.87 135.099 138.57 135.099 140.66C135.099 142.75 133.399 144.45 131.309 144.45H131.319Z" fill="#024985"/>
</svg>
