<svg width="224" height="222" viewBox="0 0 224 222" fill="none" xmlns="http://www.w3.org/2000/svg">
<path d="M65.6644 221.158H21.5244C19.4344 221.158 17.7344 219.458 17.7344 217.368V177.228C17.7344 175.138 19.4344 173.438 21.5244 173.438H65.6644C67.7544 173.438 69.4544 175.138 69.4544 177.228V217.368C69.4544 219.458 67.7544 221.158 65.6644 221.158ZM25.3144 213.578H61.8644V181.018H25.3144V213.578Z" fill="#024985"/>
<path d="M109.805 221.158H65.665C63.575 221.158 61.875 219.458 61.875 217.368V147.778C61.875 145.688 63.575 143.988 65.665 143.988H109.805C111.895 143.988 113.595 145.688 113.595 147.778V217.368C113.595 219.458 111.895 221.158 109.805 221.158ZM69.4551 213.578H106.005V151.568H69.4551V213.578Z" fill="#024985"/>
<path d="M153.944 221.158H109.804C107.714 221.158 106.014 219.458 106.014 217.368V118.328C106.014 116.238 107.714 114.538 109.804 114.538H153.944C156.034 114.538 157.734 116.238 157.734 118.328V217.368C157.734 219.458 156.034 221.158 153.944 221.158ZM113.594 213.578H150.154V122.128H113.594V213.578Z" fill="#024985"/>
<path d="M198.084 221.158H153.944C151.854 221.158 150.154 219.458 150.154 217.368V88.8779C150.154 86.7879 151.854 85.0879 153.944 85.0879H198.084C200.174 85.0879 201.874 86.7879 201.874 88.8779V217.368C201.874 219.458 200.174 221.158 198.084 221.158ZM157.734 213.578H194.284V92.678H157.734V213.578Z" fill="#024985"/>
<path d="M219.675 221.158H4.3252C2.2352 221.158 0.535156 219.458 0.535156 217.368C0.535156 215.278 2.2352 213.578 4.3252 213.578H219.675C221.765 213.578 223.465 215.278 223.465 217.368C223.465 219.458 221.765 221.158 219.675 221.158Z" fill="#024985"/>
<path d="M15.5658 149.078C14.3358 149.078 13.1357 148.488 12.4057 147.388L1.96571 131.718C1.40571 130.878 1.20572 129.858 1.40572 128.868C1.60572 127.878 2.18576 127.018 3.01576 126.458L149.376 28.9185L138.796 13.0485C138.056 11.9385 137.956 10.5184 138.526 9.31837C139.106 8.10837 140.266 7.29848 141.596 7.17848L209.286 0.858411C210.686 0.728411 212.026 1.36845 212.796 2.52845C213.566 3.68845 213.646 5.17846 212.986 6.40846L181.096 66.4484C180.466 67.6284 179.266 68.3884 177.936 68.4584C176.576 68.5184 175.336 67.8785 174.596 66.7785L164.016 50.9085L17.6557 148.448C17.0057 148.878 16.2757 149.088 15.5557 149.088L15.5658 149.078ZM10.3757 130.668L16.6157 140.028L162.976 42.4884C163.816 41.9284 164.836 41.7285 165.826 41.9285C166.816 42.1285 167.676 42.7085 168.236 43.5385L177.396 57.2785L203.006 9.04847L148.636 14.1284L157.796 27.8684C158.956 29.6084 158.486 31.9684 156.746 33.1284L10.3858 130.668H10.3757Z" fill="#024985"/>
</svg>
