<svg width="1761" height="521" viewBox="0 0 1761 521" fill="none" xmlns="http://www.w3.org/2000/svg">
<path d="M1728.25 471.254C1728.25 466.313 1727.2 462.126 1725.11 458.692C1723.1 455.175 1719.29 451.951 1713.68 449.02C1708.07 446.005 1699.99 442.865 1689.44 439.599C1680.81 437.003 1672.81 434.03 1665.44 430.68C1658.16 427.33 1651.79 423.478 1646.35 419.123C1640.91 414.685 1636.64 409.577 1633.54 403.798C1630.52 397.936 1629.01 391.195 1629.01 383.574C1629.01 373.609 1631.78 364.857 1637.31 357.32C1642.83 349.7 1650.49 343.754 1660.29 339.483C1670.09 335.212 1681.44 333.077 1694.33 333.077C1708.07 333.077 1719.88 335.589 1729.76 340.614C1739.64 345.554 1747.22 352.254 1752.49 360.712C1757.85 369.17 1760.53 378.591 1760.53 388.976H1728.13C1728.13 383.197 1726.87 378.047 1724.36 373.525C1721.93 368.919 1718.2 365.36 1713.18 362.848C1708.15 360.252 1701.75 358.953 1693.96 358.953C1686.67 358.953 1680.6 360.042 1675.74 362.22C1670.89 364.397 1667.29 367.328 1664.94 371.013C1662.6 374.697 1661.42 378.885 1661.42 383.574C1661.42 388.013 1662.85 391.949 1665.69 395.382C1668.54 398.816 1672.85 401.956 1678.63 404.803C1684.41 407.567 1691.61 410.247 1700.24 412.843C1713.81 416.779 1725.07 421.385 1734.03 426.66C1742.99 431.936 1749.65 438.175 1754 445.377C1758.44 452.579 1760.66 461.121 1760.66 471.003C1760.66 481.303 1757.98 490.222 1752.62 497.759C1747.26 505.212 1739.68 510.949 1729.88 514.968C1720.09 518.988 1708.57 520.998 1695.34 520.998C1686.55 520.998 1677.88 519.825 1669.34 517.481C1660.8 515.052 1653.05 511.451 1646.1 506.678C1639.23 501.82 1633.7 495.749 1629.52 488.463C1625.41 481.178 1623.36 472.594 1623.36 462.712H1655.77C1655.77 468.574 1656.78 473.557 1658.79 477.66C1660.8 481.764 1663.6 485.155 1667.2 487.835C1670.8 490.431 1674.99 492.316 1679.76 493.488C1684.62 494.66 1689.81 495.247 1695.34 495.247C1702.63 495.247 1708.7 494.242 1713.55 492.232C1718.41 490.138 1722.05 487.291 1724.48 483.69C1726.99 480.089 1728.25 475.944 1728.25 471.254Z" fill="#74C348"/>
<path d="M1604.31 518.484H1507.71V492.481H1604.31V518.484ZM1516.76 518.484H1484.35V335.587H1516.76V518.484ZM1591.62 437.085H1507.71V411.459H1591.62V437.085ZM1603.68 361.715H1507.71V335.587H1603.68V361.715Z" fill="#74C348"/>
<path d="M1453.77 458.692C1452.76 470.668 1449.37 481.387 1443.59 490.85C1437.9 500.229 1429.9 507.599 1419.6 512.958C1409.3 518.318 1396.7 520.998 1381.79 520.998C1366.72 520.998 1353.61 517.481 1342.47 510.446C1331.42 503.328 1322.88 493.279 1316.85 480.298C1310.9 467.318 1307.93 451.993 1307.93 434.323V419.877C1307.93 402.123 1310.99 386.798 1317.1 373.902C1323.21 360.921 1331.88 350.872 1343.1 343.754C1354.41 336.636 1367.72 333.077 1383.05 333.077C1397.7 333.077 1410.05 335.798 1420.1 341.242C1430.24 346.601 1438.07 354.054 1443.59 363.601C1449.2 373.064 1452.6 383.951 1453.77 396.261H1421.49C1420.23 384.621 1416.75 375.577 1411.06 369.128C1405.45 362.68 1396.11 359.456 1383.05 359.456C1373.58 359.456 1365.71 361.801 1359.43 366.49C1353.23 371.096 1348.54 377.88 1345.36 386.84C1342.18 395.717 1340.59 406.646 1340.59 419.626V434.323C1340.59 446.717 1342.01 457.436 1344.86 466.481C1347.71 475.441 1352.15 482.392 1358.18 487.333C1364.2 492.19 1372.08 494.618 1381.79 494.618C1390.67 494.618 1397.83 493.237 1403.27 490.473C1408.8 487.71 1412.99 483.69 1415.83 478.414C1418.68 473.054 1420.52 466.481 1421.36 458.692H1453.77Z" fill="#74C348"/>
<path d="M1272.44 518.484H1240.16V335.587H1272.44V518.484Z" fill="#74C348"/>
<path d="M1179.44 335.587H1215.24L1149.92 518.484H1125.68L1131.84 483.94L1179.44 335.587ZM1135.48 483.94L1142.01 518.484H1117.77L1052.57 335.587H1088.25L1135.48 483.94Z" fill="#74C348"/>
<path d="M972.228 335.587C986.213 335.587 998.147 337.681 1008.03 341.868C1017.91 346.055 1025.45 352.252 1030.64 360.459C1035.92 368.666 1038.55 378.757 1038.55 390.733C1038.55 399.945 1036.88 408.026 1033.53 414.977C1030.18 421.927 1025.41 427.789 1019.21 432.563C1013.09 437.252 1005.85 440.895 997.477 443.491L987.679 448.516H929.77L929.519 422.513H972.479C979.932 422.513 986.129 421.215 991.07 418.619C996.095 416.023 999.822 412.464 1002.25 407.942C1004.76 403.42 1006.02 398.27 1006.02 392.491C1006.02 383.112 1003.3 375.659 997.854 370.132C992.494 364.521 983.952 361.715 972.228 361.715H939.694V518.484H907.285V335.587H972.228ZM968.46 436.457L1002.5 436.331L1045.84 516.851V518.484H1011.17L968.46 436.457Z" fill="#74C348"/>
<path d="M879.209 518.484H782.611V492.481H879.209V518.484ZM791.655 518.484H759.246V335.587H791.655V518.484ZM866.522 437.085H782.611V411.459H866.522V437.085ZM878.581 361.715H782.611V335.587H878.581V361.715Z" fill="#74C348"/>
<path d="M696.507 471.254C696.507 466.313 695.46 462.126 693.366 458.692C691.357 455.175 687.546 451.951 681.935 449.02C676.325 446.005 668.243 442.865 657.692 439.599C649.066 437.003 641.068 434.03 633.699 430.68C626.413 427.33 620.049 423.478 614.605 419.123C609.162 414.685 604.891 409.577 601.793 403.798C598.778 397.936 597.27 391.195 597.27 383.574C597.27 373.609 600.034 364.857 605.561 357.32C611.088 349.7 618.751 343.754 628.549 339.483C638.347 335.212 649.694 333.077 662.591 333.077C676.325 333.077 688.132 335.589 698.014 340.614C707.896 345.554 715.475 352.254 720.751 360.712C726.11 369.17 728.79 378.591 728.79 388.976H696.381C696.381 383.197 695.125 378.047 692.613 373.525C690.184 368.919 686.458 365.36 681.433 362.848C676.408 360.252 670.002 358.953 662.214 358.953C654.928 358.953 648.857 360.042 643.999 362.22C639.142 364.397 635.541 367.328 633.196 371.013C630.852 374.697 629.679 378.885 629.679 383.574C629.679 388.013 631.103 391.949 633.95 395.382C636.797 398.816 641.11 401.956 646.889 404.803C652.667 407.567 659.869 410.247 668.494 412.843C682.061 416.779 693.325 421.385 702.285 426.66C711.246 431.936 717.903 438.175 722.258 445.377C726.696 452.579 728.916 461.121 728.916 471.003C728.916 481.303 726.236 490.222 720.876 497.759C715.517 505.212 707.938 510.949 698.14 514.968C688.342 518.988 676.827 520.998 663.595 520.998C654.802 520.998 646.135 519.825 637.593 517.481C629.051 515.052 621.305 511.451 614.354 506.678C607.487 501.82 601.96 495.749 597.773 488.463C593.669 481.178 591.618 472.594 591.618 462.712H624.027C624.027 468.574 625.031 473.557 627.041 477.66C629.051 481.764 631.857 485.155 635.458 487.835C639.059 490.431 643.246 492.316 648.019 493.488C652.876 494.66 658.068 495.247 663.595 495.247C670.881 495.247 676.953 494.242 681.81 492.232C686.667 490.138 690.31 487.291 692.738 483.69C695.251 480.089 696.507 475.944 696.507 471.254Z" fill="#74C348"/>
<path d="M1760.63 275.239H1702.08L1596.72 100.51V275.239H1538.17V3.72803H1596.72L1702.26 178.644V3.72803H1760.63V275.239Z" fill="#FFB100"/>
<path d="M1499 145.079C1499 172.926 1494.09 196.858 1484.27 216.873C1474.45 236.764 1460.84 252.117 1443.43 262.933C1426.03 273.624 1405.89 278.97 1383.01 278.97C1360.14 278.97 1339.88 273.624 1322.22 262.933C1304.69 252.117 1290.96 236.764 1281.01 216.873C1271.07 196.858 1266.09 172.926 1266.09 145.079V134.077C1266.09 106.23 1271 82.3607 1280.83 62.4698C1290.77 42.4546 1304.51 27.0392 1322.04 16.2235C1339.57 5.40784 1359.77 0 1382.64 0C1405.52 0 1425.66 5.40784 1443.06 16.2235C1460.59 27.0392 1474.26 42.4546 1484.09 62.4698C1494.03 82.3607 1499 106.23 1499 134.077V145.079ZM1439.89 133.704C1439.89 115.056 1437.65 99.3923 1433.18 86.7118C1428.7 74.0314 1422.18 64.4589 1413.6 57.9944C1405.02 51.5298 1394.7 48.2976 1382.64 48.2976C1370.33 48.2976 1359.95 51.5298 1351.5 57.9944C1343.05 64.4589 1336.58 74.0314 1332.11 86.7118C1327.76 99.3923 1325.58 115.056 1325.58 133.704V145.079C1325.58 163.603 1327.82 179.267 1332.29 192.071C1336.77 204.752 1343.23 214.386 1351.69 220.975C1360.26 227.564 1370.71 230.859 1383.01 230.859C1395.07 230.859 1405.33 227.564 1413.78 220.975C1422.36 214.386 1428.83 204.752 1433.18 192.071C1437.65 179.267 1439.89 163.603 1439.89 145.079V133.704Z" fill="#FFB100"/>
<path d="M1169.5 275.239H1110.94V3.72803H1169.5V275.239ZM1251.92 51.0932H1029.64V3.72803H1251.92V51.0932Z" fill="#FFB100"/>
<path d="M908.814 3.72803C929.824 3.72803 947.85 6.89814 962.893 13.2384C978.06 19.4543 989.683 28.6538 997.764 40.837C1005.84 52.8958 1009.89 67.8761 1009.89 85.7779C1009.89 100.696 1007.4 113.377 1002.43 123.819C997.578 134.262 990.74 142.902 981.913 149.74C973.087 156.577 962.706 162.109 950.772 166.336L932.124 176.965H845.039L844.666 129.6H908.628C918.076 129.6 925.97 128.046 932.311 124.938C938.651 121.706 943.375 117.168 946.483 111.325C949.591 105.482 951.145 98.5827 951.145 90.6263C951.145 78.4432 947.664 68.8085 940.702 61.7224C933.865 54.6363 923.235 51.0932 908.814 51.0932H865.179V275.239H806.625V3.72803H908.814ZM895.761 154.588L957.671 154.215L1019.77 272.441V275.239H956.925L895.761 154.588Z" fill="#FFB100"/>
<path d="M774.925 275.239H631.524V228.06H774.925V275.239ZM650.358 275.239H591.618V3.72803H650.358V275.239ZM756.277 158.504H631.524V112.817H756.277V158.504ZM774.738 51.0932H631.524V3.72803H774.738V51.0932Z" fill="#FFB100"/>
<path d="M-0.000488281 18.9155L43.2533 18.9155L43.2533 379.364L-0.000549048 379.364L-0.000488281 18.9155Z" fill="#00C9E3"/>
<path d="M360.459 18.9155L360.459 62.1694L0.0109228 62.1693L0.0109337 18.9154L360.459 18.9155Z" fill="#00C9E3"/>
<path d="M485.937 504.853L442.683 504.853L442.683 144.404L485.937 144.404L485.937 504.853Z" fill="#FD5003"/>
<path d="M125.477 504.853L125.477 461.599L485.925 461.599L485.925 504.853L125.477 504.853Z" fill="#FD5003"/>
<path d="M485.937 144.407L485.937 187.661L125.488 187.66L125.488 144.407L485.937 144.407Z" fill="#FD5003"/>
<path d="M360.459 379.362L317.206 379.362L317.206 18.9133L360.46 18.9133L360.459 379.362Z" fill="#00C9E3"/>
<path d="M-0.000488281 379.362L-0.000473697 336.108L360.448 336.108L360.448 379.362L-0.000488281 379.362Z" fill="#00C9E3"/>
<path d="M125.477 144.407L168.73 144.407L168.73 504.855L125.477 504.855L125.477 144.407Z" fill="#FD5003"/>
</svg>
